<svg width="42" height="42" viewBox="0 0 42 42" fill="none" xmlns="http://www.w3.org/2000/svg">
<path d="M38.0625 6.5625H3.9375C3.21152 6.5625 2.625 7.14902 2.625 7.875V14.4375H39.375V7.875C39.375 7.14902 38.7885 6.5625 38.0625 6.5625ZM2.625 34.125C2.625 34.851 3.21152 35.4375 3.9375 35.4375H38.0625C38.7885 35.4375 39.375 34.851 39.375 34.125V18.0469H2.625V34.125ZM26.373 26.5781C26.373 26.3977 26.5207 26.25 26.7012 26.25H33.4688C33.6492 26.25 33.7969 26.3977 33.7969 26.5781V29.5312C33.7969 29.7117 33.6492 29.8594 33.4688 29.8594H26.7012C26.5207 29.8594 26.373 29.7117 26.373 29.5312V26.5781Z" fill="white"/>
</svg>
