<svg width="874" height="155" viewBox="0 0 874 155" fill="none" xmlns="http://www.w3.org/2000/svg">
<path fill-rule="evenodd" clip-rule="evenodd" d="M0 72.6947L11 68.2973C22.7333 63.8999 45.4667 55.1052 67.4667 63.8999C90.2 72.6947 112.933 99.0789 135.667 116.668C157.667 134.258 180.4 143.053 203.133 129.86C225.867 116.668 247.867 81.4894 270.6 68.2973C293.333 55.1052 316.067 63.8999 338.8 77.092C360.8 90.2841 383.533 107.874 406.267 94.6815C429 81.4894 451 37.5157 473.733 37.5157C496.467 37.5157 519.2 81.4894 541.2 81.4894C563.933 81.4894 586.667 37.5157 609.4 15.5289C632.133 -6.45799 654.133 -6.45799 676.867 24.3236C699.6 55.1052 722.333 116.668 744.333 125.463C767.067 134.258 789.8 90.2841 812.533 72.6947C834.533 55.1052 857.267 63.8999 869 68.2973L880 72.6947V231H869C857.267 231 834.533 231 812.533 231C789.8 231 767.067 231 744.333 231C722.333 231 699.6 231 676.867 231C654.133 231 632.133 231 609.4 231C586.667 231 563.933 231 541.2 231C519.2 231 496.467 231 473.733 231C451 231 429 231 406.267 231C383.533 231 360.8 231 338.8 231C316.067 231 293.333 231 270.6 231C247.867 231 225.867 231 203.133 231C180.4 231 157.667 231 135.667 231C112.933 231 90.2 231 67.4667 231C45.4667 231 22.7333 231 11 231H0V72.6947Z" fill="#0099FF" fill-opacity="0.5"/>
</svg>
